<svg version="1.1" id="Layer_1" xmlns="http://www.w3.org/2000/svg" xmlns:xlink="http://www.w3.org/1999/xlink" x="0px" y="0px"
	 width="261.742px" height="123.594px" viewBox="17.987 88.655 261.742 123.594"
	 enable-background="new 17.987 88.655 261.742 123.594" xml:space="preserve">
<path d="M232.206,163.813c-13.9,0-24.776-11.975-24.776-27.529c0-15.142,10.735-26.841,24.643-26.841
	c10.183,0,18.72,6.194,22.438,16.104h24.643c-1.106-6.745-4.269-13.077-9.5-19.546c-9.227-11.15-22.44-17.208-37.444-17.208
	c-17.261,0-32.096,8.497-40.617,21.548c-0.963-1.445-1.998-2.888-3.174-4.34c-9.221-11.15-22.438-17.208-37.441-17.208
	c-18.222,0-33.737,9.474-41.979,23.776c-8.348-14.4-24.031-23.913-42.418-23.913c-27.118,0-48.593,20.924-48.593,47.354
	c0,27.806,20.923,48.595,48.729,48.595c18.372,0,34.086-9.592,42.397-24.051c8.332,14.424,23.947,24.051,42.14,24.051
	c17.038,0,31.95-8.324,40.494-21.752c8.619,13.141,23.53,21.752,40.74,21.752c22.571,0,41.435-14.596,46.665-36.344H254.51
	C249.413,158.582,241.98,163.813,232.206,163.813z M67.126,163.813c-14.729,0-25.604-11.838-25.604-27.667
	c0-15.004,11.015-26.704,25.191-26.704c14.179,0,25.189,11.975,25.189,27.393C91.904,151.975,81.03,163.813,67.126,163.813z
	 M173.276,148.26c-5.094,10.322-12.528,15.555-22.302,15.555c-13.902,0-24.777-11.976-24.777-27.53
	c0-15.142,10.736-26.841,24.641-26.841c10.187,0,18.72,6.194,22.438,16.104h11.877c-0.799,3.488-1.26,7.116-1.26,10.875
	c0,4.101,0.56,8.051,1.504,11.839L173.276,148.26L173.276,148.26z"/>
<g>
	<path d="M26.874,190.107c-4.229,0-6.342,3.004-6.342,9.004c0,2.949,0.533,5.188,1.601,6.728c1.069,1.529,2.654,2.298,4.756,2.298
		c4.229,0,6.342-3.008,6.342-9.025c0-2.994-0.543-5.247-1.627-6.752C30.518,190.855,28.942,190.107,26.874,190.107z M28.623,203.844
		c-0.37,0.777-0.953,1.167-1.75,1.167c-0.804,0-1.387-0.405-1.747-1.217c-0.364-0.812-0.545-2.375-0.545-4.683
		c0-2.346,0.184-3.913,0.551-4.698c0.366-0.786,0.947-1.179,1.741-1.179c0.805,0,1.39,0.393,1.755,1.17
		c0.368,0.781,0.551,2.35,0.551,4.707C29.18,201.491,28.994,203.066,28.623,203.844z"/>
	<path d="M41.861,194.759c-1.253,0-2.232,0.702-2.941,2.103v-1.937h-3.332v17.324h3.55v-5.347c0.649,0.761,1.47,1.141,2.468,1.141
		c1.391,0,2.47-0.572,3.236-1.729c0.767-1.152,1.151-2.863,1.151-5.137c0-2.169-0.394-3.781-1.177-4.839
		C44.03,195.283,43.046,194.759,41.861,194.759z M41.867,204.79c-0.263,0.499-0.667,0.744-1.212,0.744
		c-0.612,0-1.02-0.187-1.218-0.56c-0.201-0.369-0.3-1.174-0.3-2.406v-2.447c0-1.288,0.156-2.107,0.471-2.464
		c0.314-0.354,0.699-0.531,1.149-0.531c0.544,0,0.932,0.288,1.162,0.845c0.228,0.567,0.345,1.641,0.345,3.229
		C42.265,203.1,42.131,204.301,41.867,204.79z"/>
	<path d="M58.063,201.998c0-2.793-0.493-4.711-1.477-5.76c-0.986-1.049-2.212-1.571-3.681-1.571c-1.629,0-2.928,0.591-3.896,1.774
		c-0.969,1.184-1.453,2.897-1.453,5.146c0,1.99,0.457,3.579,1.369,4.767c0.913,1.188,2.248,1.783,4.005,1.783
		c2.85,0,4.563-1.505,5.132-4.513l-3.215-0.203c-0.135,1.47-0.754,2.206-1.851,2.206c-0.512,0-0.923-0.197-1.238-0.593
		c-0.316-0.388-0.473-1.166-0.473-2.323v-0.714L58.063,201.998L58.063,201.998z M52.984,197.05c1.122,0,1.685,0.836,1.685,2.501
		c0,0.086-0.004,0.203-0.014,0.359h-3.344C51.319,198.005,51.877,197.05,52.984,197.05z"/>
	<path d="M63.355,198.052v-3.127h-3.178v12.942h3.613v-5.574c0-2.665,0.881-4.001,2.641-4.001c0.135,0,0.336,0.019,0.604,0.056
		v-3.523c-0.233-0.047-0.438-0.064-0.615-0.064C64.948,194.759,63.928,195.857,63.355,198.052z"/>
	<path d="M78.221,199.831c0-1.285-0.095-2.24-0.288-2.856c-0.191-0.617-0.658-1.154-1.393-1.623
		c-0.733-0.466-1.707-0.691-2.92-0.691c-1.437,0-2.625,0.346-3.57,1.047c-0.942,0.701-1.496,1.697-1.659,3.001l3.42,0.328
		c0.097-1.321,0.602-1.985,1.52-1.985c0.501,0,0.839,0.17,1.014,0.504c0.174,0.332,0.263,0.928,0.263,1.795v0.482
		c-2.524,0.156-4.263,0.625-5.218,1.419c-0.956,0.785-1.432,1.906-1.432,3.347c0,1.158,0.313,2.036,0.945,2.637
		c0.631,0.6,1.449,0.904,2.455,0.904c1.57,0,2.751-0.753,3.543-2.257c0,0.972,0.059,1.636,0.179,1.986h3.357
		c-0.146-0.31-0.217-1.265-0.217-2.874L78.221,199.831L78.221,199.831z M74.607,202.332c0,1.309-0.178,2.209-0.532,2.7
		c-0.355,0.483-0.75,0.729-1.186,0.729c-0.803,0-1.204-0.541-1.204-1.631c0-0.818,0.225-1.402,0.671-1.745
		c0.448-0.342,1.199-0.579,2.25-0.696L74.607,202.332L74.607,202.332z"/>
	<path d="M85.362,204.889c-0.217-0.174-0.345-0.395-0.385-0.654c-0.039-0.264-0.058-0.829-0.058-1.707v-4.758h2.384v-2.845H84.92
		v-4.087l-3.51,0.114v3.973h-1.438v2.845h1.438v5.153c0,1.373,0.08,2.375,0.241,3.009c0.163,0.635,0.533,1.158,1.115,1.575
		c0.58,0.419,1.419,0.63,2.511,0.63c0.667,0,1.401-0.094,2.205-0.27v-2.743c-0.41,0.019-0.75,0.024-1.025,0.024
		C85.945,205.148,85.581,205.061,85.362,204.889z"/>
	<rect x="88.88" y="190.289" width="3.663" height="3.574"/>
	<rect x="88.907" y="194.925" width="3.61" height="12.942"/>
	<path d="M99.882,194.667c-3.508,0-5.261,2.243-5.261,6.728c0,4.494,1.752,6.742,5.261,6.742c3.498,0,5.245-2.248,5.245-6.742
		C105.127,196.91,103.379,194.667,99.882,194.667z M101.08,204.705c-0.211,0.613-0.611,0.923-1.198,0.923
		c-0.613,0-1.021-0.313-1.227-0.931c-0.204-0.612-0.307-1.715-0.307-3.295c0-1.713,0.119-2.84,0.356-3.397
		c0.238-0.549,0.63-0.823,1.176-0.823c0.56,0,0.954,0.291,1.179,0.873c0.226,0.58,0.338,1.699,0.338,3.348
		C101.398,202.99,101.292,204.098,101.08,204.705z"/>
	<path d="M116,195.242c-0.548-0.383-1.248-0.575-2.093-0.575c-1.563,0-2.646,0.675-3.243,2.026v-1.77h-3.42v12.942h3.612v-7.589
		c0-1.082,0.104-1.825,0.309-2.225c0.205-0.396,0.632-0.591,1.279-0.591c0.375,0,0.677,0.103,0.897,0.306
		c0.222,0.205,0.334,0.741,0.334,1.612v8.485h3.613v-8.485c0-1.198-0.077-2.101-0.231-2.688
		C116.906,196.104,116.553,195.622,116,195.242z"/>
	<path d="M127.04,200.869c-0.463-0.262-1.188-0.569-2.179-0.921c-0.882-0.31-1.462-0.574-1.742-0.796
		c-0.283-0.219-0.423-0.547-0.423-0.971c0-0.752,0.375-1.133,1.125-1.133c0.923,0,1.555,0.588,1.896,1.76l2.577-0.771
		c-0.624-2.258-2.084-3.38-4.382-3.38c-1.316,0-2.411,0.369-3.288,1.121c-0.874,0.753-1.313,1.75-1.313,3
		c0,0.89,0.278,1.671,0.835,2.347c0.556,0.672,1.576,1.251,3.062,1.729c0.81,0.256,1.356,0.498,1.642,0.718
		c0.28,0.221,0.422,0.549,0.422,0.973c0,0.802-0.479,1.209-1.435,1.209c-1.119,0-1.799-0.647-2.039-1.937l-2.869,0.459
		c0.314,2.574,1.93,3.858,4.842,3.858c1.547,0,2.751-0.405,3.614-1.216c0.863-0.813,1.295-1.818,1.295-3.013
		c0-0.694-0.16-1.306-0.474-1.839C127.889,201.536,127.5,201.136,127.04,200.869z"/>
	<path d="M141.738,205.011c-0.87,0-1.525-0.405-1.96-1.214c-0.435-0.807-0.653-2.285-0.653-4.439c0-2.408,0.237-4.03,0.71-4.868
		c0.477-0.837,1.115-1.255,1.917-1.255c1.528,0,2.341,1.297,2.436,3.893l3.51-0.253c-0.323-4.515-2.309-6.767-5.958-6.767
		c-2.202,0-3.866,0.801-4.983,2.396c-1.12,1.598-1.679,3.813-1.679,6.639c0,2.803,0.563,4.998,1.691,6.596s2.77,2.4,4.921,2.4
		c1.77,0,3.189-0.601,4.268-1.791c1.076-1.191,1.678-2.734,1.808-4.632l-3.551-0.216
		C143.962,203.839,143.139,205.011,141.738,205.011z"/>
	<path d="M154.406,194.667c-3.509,0-5.261,2.243-5.261,6.728c0,4.494,1.752,6.742,5.261,6.742c3.497,0,5.245-2.248,5.245-6.742
		C159.651,196.91,157.903,194.667,154.406,194.667z M155.604,204.705c-0.211,0.613-0.61,0.923-1.196,0.923
		c-0.613,0-1.021-0.313-1.227-0.931c-0.205-0.612-0.307-1.715-0.307-3.295c0-1.713,0.118-2.84,0.355-3.397
		c0.239-0.549,0.63-0.823,1.176-0.823c0.561,0,0.953,0.291,1.18,0.873c0.225,0.58,0.338,1.699,0.338,3.348
		C155.923,202.99,155.816,204.098,155.604,204.705z"/>
	<path d="M170.524,195.242c-0.549-0.383-1.25-0.575-2.095-0.575c-1.563,0-2.646,0.675-3.244,2.026v-1.77h-3.419v12.942h3.611v-7.589
		c0-1.082,0.104-1.825,0.31-2.225c0.205-0.396,0.632-0.591,1.28-0.591c0.376,0,0.676,0.103,0.896,0.306
		c0.224,0.205,0.333,0.741,0.333,1.612v8.485h3.615v-8.485c0-1.198-0.075-2.101-0.23-2.688
		C171.43,196.104,171.073,195.622,170.524,195.242z"/>
	<path d="M178.776,204.889c-0.214-0.174-0.346-0.395-0.385-0.654c-0.037-0.264-0.058-0.829-0.058-1.707v-4.758h2.388v-2.845h-2.388
		v-4.087l-3.508,0.114v3.973h-1.437v2.845h1.437v5.153c0,1.373,0.08,2.375,0.239,3.009c0.166,0.635,0.533,1.158,1.116,1.575
		c0.579,0.419,1.42,0.63,2.51,0.63c0.667,0,1.403-0.094,2.206-0.27v-2.743c-0.41,0.019-0.752,0.024-1.026,0.024
		C179.359,205.148,178.997,205.061,178.776,204.889z"/>
	<path d="M185.512,198.052v-3.127h-3.177v12.942h3.612v-5.574c0-2.665,0.879-4.001,2.642-4.001c0.134,0,0.333,0.019,0.6,0.056
		v-3.523c-0.231-0.047-0.436-0.064-0.611-0.064C187.104,194.759,186.082,195.857,185.512,198.052z"/>
	<path d="M195.344,194.667c-3.507,0-5.259,2.243-5.259,6.728c0,4.494,1.752,6.742,5.259,6.742c3.499,0,5.249-2.248,5.249-6.742
		C200.593,196.91,198.843,194.667,195.344,194.667z M196.545,204.705c-0.211,0.613-0.613,0.923-1.201,0.923
		c-0.611,0-1.018-0.313-1.224-0.931c-0.203-0.612-0.306-1.715-0.306-3.295c0-1.713,0.118-2.84,0.354-3.397
		c0.241-0.549,0.63-0.823,1.174-0.823c0.563,0,0.955,0.291,1.181,0.873c0.228,0.58,0.338,1.699,0.338,3.348
		C196.862,202.99,196.756,204.098,196.545,204.705z"/>
	<rect x="202.692" y="190.374" width="3.612" height="17.493"/>
	<path d="M220.212,205.011c-0.871,0-1.526-0.405-1.961-1.214c-0.437-0.807-0.655-2.285-0.655-4.439c0-2.408,0.236-4.03,0.71-4.868
		c0.479-0.837,1.115-1.255,1.919-1.255c1.528,0,2.34,1.297,2.434,3.893l3.511-0.253c-0.325-4.515-2.312-6.767-5.956-6.767
		c-2.206,0-3.866,0.801-4.987,2.396c-1.119,1.598-1.678,3.813-1.678,6.639c0,2.803,0.563,4.998,1.691,6.596
		c1.128,1.598,2.768,2.4,4.922,2.4c1.767,0,3.19-0.601,4.269-1.791c1.072-1.191,1.677-2.734,1.804-4.632l-3.549-0.216
		C222.434,203.839,221.609,205.011,220.212,205.011z"/>
	<path d="M238.122,201.998c0-2.793-0.489-4.711-1.475-5.76c-0.989-1.049-2.214-1.571-3.681-1.571c-1.631,0-2.929,0.591-3.896,1.774
		c-0.972,1.184-1.453,2.897-1.453,5.146c0,1.99,0.457,3.579,1.369,4.767c0.913,1.188,2.248,1.783,4.007,1.783
		c2.848,0,4.559-1.505,5.129-4.513l-3.217-0.203c-0.135,1.47-0.752,2.206-1.85,2.206c-0.511,0-0.922-0.197-1.238-0.593
		c-0.316-0.388-0.474-1.166-0.474-2.323v-0.714L238.122,201.998L238.122,201.998z M233.043,197.05c1.124,0,1.687,0.836,1.687,2.501
		c0,0.086-0.005,0.203-0.013,0.359h-3.347C231.379,198.005,231.936,197.05,233.043,197.05z"/>
	<path d="M248.994,195.242c-0.55-0.383-1.246-0.575-2.093-0.575c-1.563,0-2.646,0.675-3.243,2.026v-1.77h-3.42v12.942h3.613v-7.589
		c0-1.082,0.103-1.825,0.309-2.225c0.202-0.396,0.63-0.591,1.279-0.591c0.377,0,0.677,0.103,0.896,0.306
		c0.223,0.205,0.334,0.741,0.334,1.612v8.485h3.61v-8.485c0-1.198-0.074-2.101-0.228-2.688
		C249.897,196.104,249.548,195.622,248.994,195.242z"/>
	<path d="M257.251,204.889c-0.222-0.174-0.349-0.395-0.385-0.654c-0.042-0.264-0.061-0.829-0.061-1.707v-4.758h2.383v-2.845h-2.383
		v-4.087l-3.512,0.114v3.973h-1.438v2.845h1.438v5.153c0,1.373,0.082,2.375,0.246,3.009c0.161,0.635,0.533,1.158,1.11,1.575
		c0.583,0.419,1.42,0.63,2.515,0.63c0.668,0,1.397-0.094,2.201-0.27v-2.743c-0.409,0.019-0.747,0.024-1.022,0.024
		C257.834,205.148,257.467,205.061,257.251,204.889z"/>
	<path d="M270.759,201.998c0-2.793-0.489-4.711-1.475-5.76c-0.988-1.049-2.215-1.571-3.682-1.571c-1.63,0-2.928,0.591-3.896,1.774
		c-0.972,1.184-1.454,2.897-1.454,5.146c0,1.99,0.457,3.579,1.37,4.767c0.912,1.188,2.248,1.783,4.005,1.783
		c2.849,0,4.559-1.505,5.13-4.513l-3.215-0.203c-0.136,1.47-0.752,2.206-1.852,2.206c-0.512,0-0.921-0.197-1.237-0.593
		c-0.317-0.388-0.475-1.166-0.475-2.323v-0.714L270.759,201.998L270.759,201.998z M265.681,197.05c1.124,0,1.687,0.836,1.687,2.501
		c0,0.086-0.006,0.203-0.014,0.359h-3.348C264.016,198.005,264.574,197.05,265.681,197.05z"/>
	<path d="M279.116,194.759c-1.47,0-2.491,1.101-3.063,3.293v-3.127h-3.179v12.942h3.612v-5.574c0-2.665,0.88-4.001,2.642-4.001
		c0.137,0,0.335,0.019,0.601,0.056v-3.523C279.496,194.775,279.295,194.759,279.116,194.759z"/>
</g>
</svg>
